<?xml version="1.0" encoding="UTF-8"?>
<svg version="1.1" xmlns="http://www.w3.org/2000/svg" width="569" height="480">
<path d="M0 0 C3.98787671 0.01357245 7.97549816 0.00006591 11.96337891 -0.01269531 C35.57113175 -0.02752768 59.01677521 1.0652702 82.32666016 4.94824219 C83.51319183 5.14090668 83.51319183 5.14090668 84.72369385 5.33746338 C128.92808885 12.54569317 175.97215154 26.08387009 212.38916016 53.26074219 C212.90833008 53.64294922 213.4275 54.02515625 213.96240234 54.41894531 C224.36687553 62.10206126 233.81355379 70.62132785 243.01416016 79.69824219 C243.95763306 80.6220166 243.95763306 80.6220166 244.92016602 81.56445312 C245.50032471 82.14356445 246.0804834 82.72267578 246.67822266 83.31933594 C247.46253662 84.09748657 247.46253662 84.09748657 248.26269531 84.89135742 C249.38916016 86.26074219 249.38916016 86.26074219 249.38916016 88.26074219 C250.04916016 88.26074219 250.70916016 88.26074219 251.38916016 88.26074219 C267.01118087 104.63723549 277.79939785 126.93335529 284.38916016 148.26074219 C284.72818359 149.32808594 285.06720703 150.39542969 285.41650391 151.49511719 C294.84557947 184.70798037 288.8106057 222.7262456 276.38916016 254.26074219 C275.95087891 255.4015625 275.51259766 256.54238281 275.06103516 257.71777344 C268.77199862 273.24157339 260.21160739 287.65863318 250.50634766 301.26855469 C248.4471081 304.01854981 248.4471081 304.01854981 247.38916016 306.26074219 C246.72916016 306.26074219 246.06916016 306.26074219 245.38916016 306.26074219 C245.11201172 306.84597656 244.83486328 307.43121094 244.54931641 308.03417969 C241.05856033 314.73361054 235.67666729 320.29048441 230.60791016 325.81542969 C228.66004758 327.96219373 226.80424812 330.15739346 224.95166016 332.38574219 C218.04142075 340.26500368 209.68924816 345.59301741 200.38916016 350.26074219 C204.95417456 365.39620257 216.2571522 376.934051 229.73291016 384.59277344 C246.0835955 392.74224477 264.4242157 395.44032079 282.38916016 397.26074219 C285.08671795 407.88237601 285.08671795 407.88237601 284.38916016 413.26074219 C276.92454969 422.61020419 263.5410407 428.57749508 251.85009766 430.08105469 C215.41385274 431.97277846 168.06159202 423.13974244 140.38916016 398.26074219 C132.2960574 390.87717173 124.44996049 383.40014108 122.38916016 372.26074219 C121.42703613 372.62498291 120.46491211 372.98922363 119.47363281 373.36450195 C39.92807815 403.39009295 39.92807815 403.39009295 12.30712891 403.42871094 C11.45347244 403.43203934 10.59981598 403.43536774 9.72029114 403.438797 C7.91761813 403.44383506 6.1149359 403.44620629 4.31225586 403.44604492 C1.62222842 403.44820559 -1.06737051 403.46632295 -3.75732422 403.48535156 C-20.26129776 403.54099806 -36.31901666 402.11535268 -52.48583984 398.69824219 C-53.70561523 398.44139648 -54.92539063 398.18455078 -56.18212891 397.91992188 C-96.89139743 389.00205752 -142.64965683 372.5705654 -175.61083984 346.26074219 C-176.41255615 345.62507324 -176.41255615 345.62507324 -177.23046875 344.9765625 C-184.47597425 339.20412384 -184.47597425 339.20412384 -187.61083984 336.26074219 C-187.61083984 335.60074219 -187.61083984 334.94074219 -187.61083984 334.26074219 C-188.60083984 333.93074219 -189.59083984 333.60074219 -190.61083984 333.26074219 C-218.96304191 307.98858435 -233.37417199 263.19286858 -236.36083984 226.69824219 C-236.70326777 219.88229594 -236.7645576 213.08288265 -236.61083984 206.26074219 C-236.58570313 204.45863281 -236.58570313 204.45863281 -236.56005859 202.62011719 C-235.82381636 181.50048288 -231.63373645 160.17498324 -224.61083984 140.26074219 C-224.26931885 139.27775146 -224.26931885 139.27775146 -223.92089844 138.27490234 C-215.88092636 115.57757726 -202.64113124 95.844521 -187.61083984 77.26074219 C-186.88638672 76.30425781 -186.16193359 75.34777344 -185.41552734 74.36230469 C-184.81998047 73.66878906 -184.22443359 72.97527344 -183.61083984 72.26074219 C-182.95083984 72.26074219 -182.29083984 72.26074219 -181.61083984 72.26074219 C-181.21251953 71.37563965 -181.21251953 71.37563965 -180.80615234 70.47265625 C-179.57775015 68.19951003 -178.30339589 66.69507026 -176.48583984 64.87011719 C-175.86692871 64.2470166 -175.24801758 63.62391602 -174.61035156 62.98193359 C-173.9505127 62.33144043 -173.29067383 61.68094727 -172.61083984 61.01074219 C-171.93166504 60.33833496 -171.25249023 59.66592773 -170.55273438 58.97314453 C-153.90042378 42.66043525 -133.68023368 30.06744176 -112.61083984 20.26074219 C-111.63751709 19.80634766 -111.63751709 19.80634766 -110.64453125 19.34277344 C-75.81815889 3.38032306 -37.81054265 -0.12967798 0 0 Z M-165.54833984 80.07324219 C-166.52552979 81.043302 -166.52552979 81.043302 -167.52246094 82.03295898 C-168.13814941 82.65082275 -168.75383789 83.26868652 -169.38818359 83.90527344 C-169.93724365 84.45546143 -170.48630371 85.00564941 -171.05200195 85.57250977 C-174.42315769 88.93250232 -174.42315769 88.93250232 -175.61083984 93.26074219 C-176.27083984 93.26074219 -176.93083984 93.26074219 -177.61083984 93.26074219 C-178.96355477 94.77103958 -178.96355477 94.77103958 -180.29833984 96.78417969 C-180.82741943 97.54899658 -181.35649902 98.31381348 -181.90161133 99.10180664 C-182.46565674 99.93800537 -183.02970215 100.7742041 -183.61083984 101.63574219 C-184.19099854 102.49192139 -184.77115723 103.34810059 -185.36889648 104.23022461 C-206.20933536 135.4178741 -217.80054157 170.31539872 -217.79614258 207.91796875 C-217.79832161 209.99337529 -217.81652465 212.06824206 -217.83544922 214.14355469 C-218.00198137 252.67915244 -205.27163143 291.12490391 -178.05957031 318.83056641 C-169.23913143 327.53803708 -159.24665358 334.03638778 -148.61083984 340.26074219 C-147.91748535 340.6679248 -147.22413086 341.07510742 -146.50976562 341.49462891 C-126.44310872 353.18047831 -105.53940071 362.64869169 -83.61083984 370.26074219 C-82.67884766 370.58558594 -81.74685547 370.91042969 -80.78662109 371.24511719 C-62.22914269 377.63161187 -43.16580424 382.30524575 -23.61083984 384.26074219 C-22.58474609 384.37160156 -21.55865234 384.48246094 -20.50146484 384.59667969 C11.86165195 387.51725364 41.00278187 384.00081969 70.23217773 369.60693359 C82.90268964 363.46007454 96.32629185 359.56075716 110.01416016 356.38574219 C110.88983643 356.18239258 111.7655127 355.97904297 112.66772461 355.76953125 C117.19940054 354.77711185 121.75005273 353.9806942 126.35009766 353.37792969 C127.68886963 353.19786377 127.68886963 353.19786377 129.0546875 353.01416016 C131.38916016 353.26074219 131.38916016 353.26074219 133.20825195 355.04248047 C134.38916016 357.26074219 134.38916016 357.26074219 134.32275391 360.63574219 C134.40577032 365.16746145 135.65746677 366.75283998 138.45166016 370.26074219 C138.86432129 370.78055664 139.27698242 371.30037109 139.70214844 371.8359375 C158.22502688 394.82639368 189.31920594 409.03558332 218.38916016 412.26074219 C227.72059382 412.7626151 237.05431849 412.59660221 246.38916016 412.26074219 C243.16194369 410.60706304 239.93180499 409.35450331 236.51416016 408.13574219 C220.36195189 401.90250745 205.81076276 392.09537734 196.38916016 377.26074219 C195.89158203 376.49375 195.39400391 375.72675781 194.88134766 374.93652344 C188.83907947 365.26585802 184.78104324 355.11855788 181.38916016 344.26074219 C183.67734366 342.11116894 185.97028336 339.96673763 188.26416016 337.82324219 C188.91513672 337.21158203 189.56611328 336.59992188 190.23681641 335.96972656 C191.17460938 335.09477539 191.17460938 335.09477539 192.13134766 334.20214844 C192.70739746 333.66275635 193.28344727 333.12336426 193.87695312 332.56762695 C195.38916016 331.26074219 195.38916016 331.26074219 197.38916016 330.26074219 C197.38916016 329.60074219 197.38916016 328.94074219 197.38916016 328.26074219 C197.94603516 328.03386719 198.50291016 327.80699219 199.07666016 327.57324219 C202.04771201 325.88696952 204.03438141 323.73038819 206.38916016 321.26074219 C207.13166016 320.53886719 207.87416016 319.81699219 208.63916016 319.07324219 C216.01780646 311.52689938 222.8060185 303.503593 229.38916016 295.26074219 C230.18193359 294.28621094 230.97470703 293.31167969 231.79150391 292.30761719 C248.86160217 270.8419012 260.10411642 246.64525857 267.20166016 220.26074219 C267.40879639 219.49584473 267.61593262 218.73094727 267.8293457 217.94287109 C272.5313924 199.72516467 271.77155792 179.45459431 267.38916016 161.26074219 C267.22287109 160.53725586 267.05658203 159.81376953 266.88525391 159.06835938 C260.89141055 133.4613286 247.24852017 111.93103175 228.82666016 93.38574219 C228.21878662 92.77239014 227.61091309 92.15903809 226.98461914 91.52709961 C224.19707405 88.34671731 224.19707405 88.34671731 220.38916016 87.26074219 C220.13521484 86.66390625 219.88126953 86.06707031 219.61962891 85.45214844 C218.23678426 82.98936797 216.95893983 81.8793781 214.70166016 80.19824219 C213.89599609 79.59625 213.09033203 78.99425781 212.26025391 78.37402344 C210.8390625 77.32794922 210.8390625 77.32794922 209.38916016 76.26074219 C208.25435291 75.40097859 207.12028045 74.54024456 205.98681641 73.67871094 C192.59351826 63.57831925 178.5073542 55.48793593 163.38916016 48.26074219 C162.43525391 47.79925781 161.48134766 47.33777344 160.49853516 46.86230469 C139.56732609 37.02338306 116.94891682 31.06484905 94.38916016 26.26074219 C93.62313477 26.09477539 92.85710937 25.92880859 92.06787109 25.7578125 C9.62050114 8.14480722 -93.48884149 10.9582927 -165.54833984 80.07324219 Z " fill="#0A0A0A" transform="translate(249.61083984375,22.7392578125)"/>
<path d="M0 0 C10.89 0 21.78 0 33 0 C33 16.88214341 33 16.88214341 32.66455078 23.12182617 C32.62874908 23.80699814 32.59294739 24.4921701 32.55606079 25.19810486 C32.43998728 27.39664091 32.31802891 29.59479428 32.1953125 31.79296875 C32.11025868 33.35703149 32.02537255 34.92110336 31.94064331 36.48518372 C31.76354961 39.73499574 31.58327914 42.98461254 31.40087891 46.23413086 C31.16941661 50.36527394 30.94784431 54.49688181 30.72886848 58.62870312 C30.55677941 61.84888366 30.37848059 65.06869918 30.19848251 68.28844643 C30.11427545 69.81071869 30.03213214 71.33310678 29.9522438 72.8556118 C29.83934636 74.99293979 29.71776445 77.12962057 29.59423828 79.26635742 C29.52761993 80.47353928 29.46100159 81.68072113 29.3923645 82.92448425 C28.87320094 88.31707008 27.89063465 93.65619212 27 99 C40.53 98.67 54.06 98.34 68 98 C70.00574924 69.17766726 70.00574924 69.17766726 71.83203125 40.34375 C71.89898697 39.22931015 71.96594269 38.1148703 72.03492737 36.96665955 C72.36099836 31.52307107 72.68212911 26.07923907 72.99731445 20.63500977 C73.11531219 18.64338689 73.23339074 16.6517688 73.3515625 14.66015625 C73.40250565 13.75370361 73.45344879 12.84725098 73.50593567 11.91333008 C73.55634506 11.07318359 73.60675446 10.23303711 73.65869141 9.36743164 C73.70071686 8.64076797 73.74274231 7.91410431 73.78604126 7.16542053 C74.02424221 4.75465095 74.5249069 2.37546548 75 0 C82.92 0 90.84 0 99 0 C97.56623011 4.30130966 94.38384483 5.23625005 90.5625 7.1875 C89.86833984 7.55552734 89.17417969 7.92355469 88.45898438 8.30273438 C83.28964228 11 83.28964228 11 81 11 C81 71.39 81 131.78 81 194 C82.65 194.66 84.3 195.32 86 196 C87.64475785 197.10870799 89.25055553 198.27738343 90.8125 199.5 C91.60269531 200.1084375 92.39289063 200.716875 93.20703125 201.34375 C93.79871094 201.8903125 94.39039063 202.436875 95 203 C95 203.66 95 204.32 95 205 C84.11 205 73.22 205 62 205 C62 196.7057441 62.03865568 188.86313914 62.8125 180.6875 C64.17334755 165.1581989 65.03127492 149.59645391 65.9465332 134.03588867 C66.00875061 132.99014679 66.07096802 131.94440491 66.1350708 130.86697388 C66.25200731 128.89977596 66.36724739 126.93247612 66.48040771 124.96505737 C66.53400452 124.06465729 66.58760132 123.1642572 66.64282227 122.23657227 C66.68786392 121.46370377 66.73290558 120.69083527 66.77931213 119.89454651 C67.10752946 115.58964144 67.57040274 111.29597259 68 107 C54.47 107 40.94 107 27 107 C26.73445313 111.7025 26.46890625 116.405 26.1953125 121.25 C26.02248178 124.28517686 25.84946125 127.32034066 25.67578125 130.35546875 C25.40200992 135.14003678 25.12882442 139.9246315 24.85986328 144.70947266 C23.14660581 175.16151725 23.14660581 175.16151725 21.9296875 189.9375 C21.85090363 190.90179932 21.77211975 191.86609863 21.69094849 192.85961914 C21.33162715 197.01828904 20.82302885 200.88485577 20 205 C12.41 205 4.82 205 -3 205 C-0.79419689 200.58839379 1.42804093 199.13487842 5.5 196.75 C6.09425781 196.38648438 6.68851563 196.02296875 7.30078125 195.6484375 C11.71152491 193 11.71152491 193 14 193 C14.12636715 169.39097523 14.18993538 145.78250369 14.17878246 122.17312527 C14.17506742 111.21073006 14.19188672 100.24908508 14.25708008 89.28686523 C14.31385233 79.7318841 14.3320629 70.17773982 14.3040064 60.6226173 C14.29049581 55.56303584 14.29626814 50.50513627 14.34822655 45.44576836 C14.39654125 40.68185862 14.3932325 35.92075353 14.35058594 31.15681648 C14.3440008 29.41009846 14.35616593 27.66319193 14.38863564 25.91676331 C14.47874078 20.74062458 14.44464776 15.99669928 13 11 C10.33838622 8.3143865 7.98923461 6.85857914 4.55443287 5.30658054 C2 4 2 4 0 0 Z " fill="#000000" transform="translate(109,113)"/>
<path d="M0 0 C11.66952376 6.88434187 17.37608046 19.80286979 20.81152344 32.38720703 C29.08226373 65.1135629 28.95906629 103.49983617 13.64453125 134.12890625 C9.74350561 140.6099753 4.59032888 146.32041567 -2.35546875 149.50390625 C-10.35005887 151.16944586 -15.61481358 149.49577588 -22.35546875 145.12890625 C-35.28744393 134.65459151 -39.88609881 112.82107354 -41.66796875 97.12890625 C-44.46532802 67.87765873 -44.58385714 32.24406298 -26.36328125 7.4140625 C-24.59134498 5.3973646 -22.99114942 3.89353633 -20.79296875 2.37890625 C-19.92478516 1.76789063 -19.92478516 1.76789063 -19.0390625 1.14453125 C-13.67031296 -2.09415757 -5.78477231 -2.13931049 0 0 Z M-17.35546875 11.12890625 C-27.34666356 28.44169091 -26.54242264 49.51672884 -26.54077148 68.83032227 C-26.5429465 71.66242786 -26.56114049 74.49413529 -26.58007812 77.32617188 C-26.60961148 86.77817987 -26.3396643 96.13230249 -25.4609375 105.546875 C-25.38215866 106.39681534 -25.30337982 107.24675568 -25.22221375 108.12245178 C-24.46690246 115.42862808 -22.84699956 122.20190302 -20.35546875 129.12890625 C-20.03449219 130.03511719 -19.71351563 130.94132812 -19.3828125 131.875 C-17.99349297 135.39048464 -16.84667244 137.67752988 -14.04296875 140.25390625 C-10.38225028 141.44576808 -8.05470382 141.13778854 -4.35546875 140.12890625 C3.49992389 134.51791151 5.58883991 122.81019257 7.23828125 113.93359375 C9.72526882 97.58530783 10.03358848 80.63846511 9.64453125 64.12890625 C9.62664551 63.24203125 9.60875977 62.35515625 9.59033203 61.44140625 C9.32156979 49.38830248 9.00458898 37.77710638 5.64453125 26.12890625 C5.34417969 25.0409375 5.04382813 23.95296875 4.734375 22.83203125 C2.93648639 16.86333221 1.13507768 12.50128041 -3.35546875 8.12890625 C-8.93668078 5.33830024 -13.15233928 7.12142807 -17.35546875 11.12890625 Z " fill="#000000" transform="translate(432.35546875,169.87109375)"/>
<path d="M0 0 C4.83748489 2.79869815 8.38272747 6.64519661 11.6640625 11.1171875 C12.09460938 11.70113281 12.52515625 12.28507813 12.96875 12.88671875 C25.27890342 31.04610657 24.6640625 51.83571079 24.6640625 73.1171875 C7.5040625 73.1171875 -9.6559375 73.1171875 -27.3359375 73.1171875 C-27.0059375 75.4271875 -26.6759375 77.7371875 -26.3359375 80.1171875 C-26.23191292 82.01668274 -26.16085583 83.91830892 -26.125 85.8203125 C-26.50719951 112.39532548 -26.50719951 112.39532548 -16.3359375 136.1171875 C-12.68197632 138.62893065 -9.8102055 139.93456432 -5.3359375 140.1171875 C-0.06148832 138.57880649 2.38750066 135.50618366 5.16015625 130.99609375 C11.39936288 119.05246963 14.35580355 106.10286183 17.18676758 93.01806641 C17.6640625 91.1171875 17.6640625 91.1171875 18.6640625 89.1171875 C19.3240625 89.1171875 19.9840625 89.1171875 20.6640625 89.1171875 C20.6640625 108.2571875 20.6640625 127.3971875 20.6640625 147.1171875 C20.0040625 147.1171875 19.3440625 147.1171875 18.6640625 147.1171875 C17.3440625 142.1671875 16.0240625 137.2171875 14.6640625 132.1171875 C11.61135787 135.74825511 11.61135787 135.74825511 10.6640625 139.1171875 C10.0040625 139.1171875 9.3440625 139.1171875 8.6640625 139.1171875 C8.4578125 139.6740625 8.2515625 140.2309375 8.0390625 140.8046875 C5.27989354 145.44510803 0.86113101 148.72285205 -4.3359375 150.1171875 C-11.39795451 150.93203562 -16.94786114 148.64327977 -22.546875 144.46875 C-36.2821127 132.77592682 -41.84052504 113.70323809 -43.3359375 96.1171875 C-43.68662495 89.55842532 -43.74751606 82.99647912 -43.7734375 76.4296875 C-43.77979218 75.60328766 -43.78614685 74.77688782 -43.79269409 73.92544556 C-43.90250699 50.92092667 -40.08798573 26.21725448 -26.3359375 7.1171875 C-25.6759375 7.1171875 -25.0159375 7.1171875 -24.3359375 7.1171875 C-24.07554687 6.50359375 -23.81515625 5.89 -23.546875 5.2578125 C-19.25128157 -2.33568814 -7.3355083 -2.7722824 0 0 Z M-17.3359375 12.1171875 C-24.88156956 24.01203804 -26.36029946 40.83454577 -26.8984375 54.4921875 C-27.0428125 57.9984375 -27.1871875 61.5046875 -27.3359375 65.1171875 C-15.4559375 65.1171875 -3.5759375 65.1171875 8.6640625 65.1171875 C9.27137502 35.61118702 9.27137502 35.61118702 -2.3359375 9.1171875 C-8.25472045 5.1713322 -12.95343429 6.86316377 -17.3359375 12.1171875 Z " fill="#000000" transform="translate(256.3359375,169.8828125)"/>
<path d="M0 0 C11.88 0 23.76 0 36 0 C36.09626162 14.58042731 35.80357133 29.09237259 35.20043945 43.65966797 C35.06149938 47.02423102 34.92970915 50.38902099 34.79882812 53.75390625 C34.71135353 55.94012085 34.62347727 58.12631943 34.53515625 60.3125 C34.47727684 61.78638184 34.47727684 61.78638184 34.41822815 63.29003906 C34.21517236 68.12837977 33.93367482 72.94434092 33.52514648 77.76977539 C32.80107053 86.85991113 32.52015375 95.97008531 32.18405151 105.0810833 C32.06025838 108.43176727 31.93304033 111.78230617 31.80493164 115.13282776 C31.44169533 124.6491648 31.08474749 134.16573507 30.72949219 143.68237305 C30.5110977 149.52649792 30.28898378 155.37047225 30.06466675 161.21437263 C29.98026917 163.43385352 29.89734954 165.65339113 29.81594849 167.87298393 C29.70237828 170.96941986 29.584118 174.06564453 29.46484375 177.16186523 C29.43260712 178.07364532 29.40037048 178.98542542 29.36715698 179.92483521 C29.19126357 184.36433756 28.86331878 188.62771442 28 193 C29.05960937 193.38865234 29.05960937 193.38865234 30.140625 193.78515625 C33.21878425 195.09295342 35.91908957 196.65861709 38.75 198.4375 C40.19632812 199.33275391 40.19632812 199.33275391 41.671875 200.24609375 C44 202 44 202 45 205 C31.14 205 17.28 205 3 205 C4 202 4 202 7.09603214 200.34852886 C7.71616686 200.04273004 8.33630157 199.73693122 8.97522825 199.42186576 C13.95839869 196.83471074 17.36453514 194.75033316 19.32914543 189.33898354 C20.00563775 184.7869035 19.90314695 180.23120741 19.82397461 175.6418457 C19.84464739 173.88665032 19.87132906 172.13151703 19.90353394 170.37649536 C19.97250142 165.62964264 19.95441662 160.88680314 19.91782832 156.13973641 C19.89184154 151.16551736 19.93812993 146.19190242 19.97425842 141.21781921 C20.02378131 132.86926395 20.01798842 124.52216151 19.9777832 116.17358398 C19.9318678 106.52546262 19.96720687 96.88029107 20.04736131 87.23244983 C20.12320838 77.94133335 20.14776953 68.65080174 20.14685249 59.35939598 C20.146996 55.40914406 20.16396475 51.45949507 20.19428825 47.50936317 C20.22722823 42.85873626 20.21488164 38.21034649 20.16767502 33.55986404 C20.1574203 31.85470074 20.16242831 30.14936641 20.18388939 28.44430733 C20.61084711 19.47935362 20.61084711 19.47935362 17.02739143 11.68913841 C14.72876288 10.12775541 12.57205844 9.03268799 10 8 C8.98808594 7.39671875 7.97617187 6.7934375 6.93359375 6.171875 C5.24735427 5.21132544 3.55981875 4.25304806 1.87109375 3.296875 C1.25363281 2.86890625 0.63617188 2.4409375 0 2 C0 1.34 0 0.68 0 0 Z " fill="#000000" transform="translate(334,113)"/>
<path d="M0 0 C11.88 0 23.76 0 36 0 C35.49860102 20.95847752 34.65593702 41.87413344 33.625 62.8125 C32.43341387 87.10607908 31.37004246 111.40291851 30.41313934 135.70690536 C30.31355573 138.22332228 30.21245434 140.73967384 30.11090088 143.25601196 C29.77521542 151.60236129 29.45681597 159.94861671 29.19308662 168.29758358 C29.06526389 172.28860584 28.89305706 176.27508906 28.6953125 180.26318359 C28.63491334 181.98008067 28.57612769 183.69703587 28.51953125 185.4140625 C28.47105545 186.14087219 28.42257965 186.86768188 28.37263489 187.61651611 C28.31501054 190.38171911 28.48672727 192.40414427 30.32714844 194.54067993 C33.88639975 197.50978652 37.67101013 199.31959519 42 201 C42.66 201.33 43.32 201.66 44 202 C44 202.99 44 203.98 44 205 C30.47 205 16.94 205 3 205 C3 204.01 3 203.02 3 202 C5.26530496 200.28771335 7.46507445 198.7909964 9.875 197.3125 C10.52597656 196.89677734 11.17695313 196.48105469 11.84765625 196.05273438 C16.70997537 193 16.70997537 193 19 193 C19.26675344 169.70375664 19.4359511 146.40861205 19.48965549 123.11086464 C19.51685699 112.29258312 19.57573356 101.47622092 19.7097168 90.65869141 C19.82644579 81.22769788 19.883196 71.79855484 19.86853737 62.36681688 C19.86285613 57.37373161 19.88678326 52.3848213 19.98260689 47.39256668 C20.07196939 42.68747455 20.08077803 37.98892911 20.02923203 33.28333664 C20.02431075 31.56192797 20.04820893 29.84014454 20.10386848 28.11962891 C20.40189004 20.30139959 20.40189004 20.30139959 18 13 C13.63058979 8.82791251 8.16384668 6.29207726 2.64198917 3.97831666 C1 3 1 3 0 0 Z " fill="#000000" transform="translate(285,113)"/>
<path d="M0 0 C0.66 0.33 1.32 0.66 2 1 C-2.18705529 6.01267183 -6.61868274 10.77378977 -11.1875 15.4375 C-11.69829102 15.96956055 -12.20908203 16.50162109 -12.73535156 17.04980469 C-17.2993611 21.65554912 -17.2993611 21.65554912 -21 22 C-20.01 20.515 -20.01 20.515 -19 19 C-18.34 19 -17.68 19 -17 19 C-16.7417041 18.41573242 -16.4834082 17.83146484 -16.21728516 17.22949219 C-14.90326864 14.82283378 -13.47519985 13.24680663 -11.5234375 11.328125 C-10.51796875 10.33232422 -10.51796875 10.33232422 -9.4921875 9.31640625 C-8.79351562 8.63449219 -8.09484375 7.95257813 -7.375 7.25 C-6.66859375 6.55261719 -5.9621875 5.85523437 -5.234375 5.13671875 C-3.49401297 3.41987512 -1.74915019 1.70788168 0 0 Z " fill="#464646" transform="translate(85,76)"/>
</svg>
